#!OML:ASF E:\Steps\Project 1\Capture day 1\Session 2\Subject.ASF
:FULLY-SPECIFIED
:DEGREES
459
root 12.0433 18.022 8.21982 -154.79 -0.15649 176.138
lowerback -30.4039 -3.67235 -12.4627
upperback -0.335069 -0.920309 -1.55797
thorax 15.6353 -1.56719 4.51842
lowerneck -2.53556 -3.34645 -0.171075
upperneck 10.0958 -4.66223 6.04367
head 3.92454 -1.88151 1.8612
rclavicle 8.15017e-015 3.18055e-015
rhumerus -33.7086 -17.8549 -78.2228
rradius 25.716
rwrist 3.07321
rhand -4.48128 -53.3773
rfingers 7.12502
rthumb 21.2917 277.772
lclavicle 8.15017e-015 3.18055e-015
lhumerus -28.3347 7.65936 76.0142
lradius 16.4129
lwrist -8.43563
lhand -21.6018 -12.0085
lfingers 7.12502
lthumb 4.79324 17.9173
rfemur -23.7512 7.03761 16.9732
rtibia 7.24918
rfoot -18.3533 -4.06535
rtoes -18.2816
lfemur -23.378 -11.1426 -23.4892
ltibia 7.2115
lfoot -6.32885 -6.22808
ltoes -9.38638
460
root 12.0447 18.0207 8.22027 -154.759 -0.0985303 176.128
lowerback -30.4605 -3.62996 -12.4034
upperback -0.355812 -0.882125 -1.56252
thorax 15.63 -1.54671 4.49659
lowerneck -2.46409 -3.26308 -0.272829
upperneck 9.89053 -4.55275 6.23124
head 3.84397 -1.83139 1.94719
rclavicle -6.16232e-015 3.49861e-014
rhumerus -33.7395 -17.8104 -78.2121
rradius 25.6788
rwrist 2.91945
rhand -4.38701 -53.6877
rfingers 7.12502
rthumb 21.3823 277.472
lclavicle -6.16232e-015 3.49861e-014
lhumerus -28.2419 7.63209 76.1431
lradius 16.4149
lwrist -8.49356
lhand -21.5822 -12.4467
lfingers 7.12502
lthumb 4.81218 17.4786
rfemur -23.7822 6.94285 16.974
rtibia 7.2271
rfoot -18.3709 -3.94249
rtoes -18.8169
lfemur -23.4305 -11.1269 -23.5149
ltibia 7.23867
lfoot -6.33014 -6.11299
ltoes -10.7318
461
root 12.0466 18.0208 8.21996 -154.8 -0.0541368 176.12
lowerback -30.4642 -3.58563 -12.3424
upperback -0.339646 -0.838267 -1.57858
thorax 15.6445 -1.52288 4.46553
lowerneck -2.44154 -3.15597 -0.348947
upperneck 9.71196 -4.4106 6.34668
head 3.77743 -1.76679 2.00489
rclavicle -8.34896e-015 3.81667e-014
rhumerus -33.7023 -18.1395 -78.1112
rradius 25.5006
rwrist 3.08857
rhand -4.44566 -53.7782
rfingers 7.12502
rthumb 21.3259 277.375
lclavicle -8.34896e-015 3.81667e-014
lhumerus -28.0739 7.50713 76.2879
lradius 16.4433
lwrist -8.30782
lhand -21.362 -12.7075
lfingers 7.12502
lthumb 5.02486 17.2129
rfemur -23.706 6.87982 16.9849
rtibia 7.1583
rfoot -18.4123 -3.80768
rtoes -18.8727
lfemur -23.3727 -11.0793 -23.5484
ltibia 7.19744
lfoot -6.28343 -6.08357
ltoes -10.8705
462
root 12.0509 18.0219 8.21854 -154.852 -0.0603589 176.118
lowerback -30.4096 -3.58883 -12.317
upperback -0.32991 -0.857438 -1.54292
thorax 15.6366 -1.52788 4.48634
lowerneck -2.44792 -3.09919 -0.444325
upperneck 9.48043 -4.33427 6.37792
head 3.69804 -1.74356 2.03344
rclavicle -8.54774e-015 5.725e-014
rhumerus -33.6589 -18.2906 -78.0347
rradius 25.362
rwrist 3.1453
rhand -4.70029 -53.6205
rfingers 7.12502
rthumb 21.0814 277.505
lclavicle -8.54774e-015 5.725e-014
lhumerus -27.926 7.14536 76.5868
lradius 16.5307
lwrist -7.76216
lhand -21.1931 -12.5137
lfingers 7.12502
lthumb 5.18794 17.4028
rfemur -23.5712 6.91376 17.0067
rtibia 7.05502
rfoot -18.4784 -3.82254
rtoes -18.6313
lfemur -23.2928 -11.0477 -23.5392
ltibia 7.17959
lfoot -6.27978 -6.25692
ltoes -9.63645
463
root 12.0542 18.0211 8.21795 -154.742 0.0292562 176.098
lowerback -30.4817 -3.56787 -12.3153
upperback -0.392814 -0.838651 -1.52893
thorax 15.5901 -1.52002 4.5061
lowerneck -2.43574 -3.03203 -0.507037
upperneck 9.30952 -4.24298 6.41142
head 3.63498 -1.70778 2.05829
rclavicle -6.36111e-015 -7.4743e-014
rhumerus -33.7518 -18.3708 -77.9442
rradius 25.3149
rwrist 3.20584
rhand -4.74795 -53.343
rfingers 7.12502
rthumb 21.0356 277.778
lclavicle -6.36111e-015 -7.4743e-014
lhumerus -27.8824 6.66947 76.8949
lradius 16.6171
lwrist -7.29298
lhand -21.3221 -12.2525
lfingers 7.12502
lthumb 5.06333 17.667
rfemur -23.6439 6.82258 16.9933
rtibia 6.94963
rfoot -18.4469 -3.68499
rtoes -18.6994
lfemur -23.4064 -10.9997 -23.5471
ltibia 7.20666
lfoot -6.33392 -6.35331
ltoes -8.67172
464
root 12.0558 18.0194 8.21778 -154.562 0.238308 176.028
lowerback -30.646 -3.51823 -12.3748
upperback -0.47836 -0.754281 -1.55369
thorax 15.5444 -1.49049 4.53819
lowerneck -2.36702 -2.8467 -0.565802
upperneck 9.24564 -3.9902 6.5036
head 3.5936 -1.58284 2.11066
rclavicle -1.74931e-014 -9.54166e-015
rhumerus -33.9242 -18.6773 -77.7282
rradius 25.2644
rwrist 3.52798
rhand -4.5842 -52.9316
rfingers 7.12502
rthumb 21.1929 278.207
lclavicle -1.74931e-014 -9.54166e-015
lhumerus -27.9139 6.37451 77.087
lradius 16.732
lwrist -7.21399
lhand -21.5048 -11.9906
lfingers 7.12502
lthumb 4.88698 17.933
rfemur -23.87 6.68009 16.8871
rtibia 6.88946
rfoot -18.3041 -3.3407
rtoes -18.4676
lfemur -23.5853 -10.943 -23.6394
ltibia 7.16026
lfoot -6.34776 -6.23545
ltoes -8.84635
465
root 12.0589 18.0195 8.21676 -154.474 0.396376 175.938
lowerback -30.754 -3.50483 -12.4554
upperback -0.503346 -0.702838 -1.56889
thorax 15.5518 -1.47739 4.58047
lowerneck -2.34065 -2.65421 -0.643364
upperneck 9.14323 -3.7291 6.57597
head 3.54604 -1.45776 2.15893
rclavicle -1.42131e-014 5.48646e-014
rhumerus -34.0203 -18.8627 -77.5937
rradius 25.2397
rwrist 3.71871
rhand -4.58623 -52.7645
rfingers 7.12502
rthumb 21.1909 278.374
lclavicle -1.42131e-014 5.48646e-014
lhumerus -27.8635 6.43071 77.184
lradius 16.7977
lwrist -7.38667
lhand -21.42 -11.7973
lfingers 7.12502
lthumb 4.96884 18.1244
rfemur -23.9889 6.67438 16.7517
rtibia 6.85961
rfoot -18.1907 -3.20847
rtoes -18.1709
lfemur -23.6438 -10.8957 -23.757
ltibia 7.08697
lfoot -6.34843 -6.14279
ltoes -9.15024
466
root 12.0645 18.0194 8.21399 -154.546 0.393284 175.892
lowerback -30.6943 -3.53306 -12.4616
upperback -0.488472 -0.74097 -1.58122
thorax 15.5489 -1.49332 4.55589
lowerneck -2.369 -2.49778 -0.595343
upperneck 9.13115 -3.51841 6.5342
head 3.53542 -1.35395 2.14406
rclavicle -3.97569e-015 -3.18055e-015
rhumerus -34.1001 -18.9291 -77.6109
rradius 25.2346
rwrist 3.8169
rhand -4.52749 -52.7149
rfingers 7.12502
rthumb 21.2473 278.43
lclavicle -3.97569e-015 -3.18055e-015
lhumerus -27.8025 6.33041 77.2823
lradius 16.897
lwrist -7.27262
lhand -21.3394 -11.7516
lfingers 7.12502
lthumb 5.04667 18.1683
rfemur -23.8273 6.80867 16.7041
rtibia 6.73845
rfoot -18.1647 -3.42764
rtoes -18.3907
lfemur -23.5413 -10.8186 -23.8196
ltibia 7.08045
lfoot -6.37511 -6.22841
ltoes -8.86043
467
root 12.0695 18.0197 8.21213 -154.651 0.355758 175.848
lowerback -30.5737 -3.56253 -12.4604
upperback -0.485776 -0.793595 -1.58994
thorax 15.5068 -1.51238 4.52756
lowerneck -2.35797 -2.44146 -0.543539
upperneck 9.15773 -3.44346 6.5496
head 3.53847 -1.31214 2.14335
rclavicle 3.77691e-015 3.89618e-014
rhumerus -34.1094 -19.138 -77.553
rradius 25.1197
rwrist 4.12561
rhand -4.32555 -52.825
rfingers 7.12502
rthumb 21.4413 278.341
lclavicle 3.77691e-015 3.89618e-014
lhumerus -27.8047 5.91789 77.4864
lradius 17.0468
lwrist -6.92587
lhand -21.4235 -11.8599
lfingers 7.12502
lthumb 4.96546 18.0619
rfemur -23.6124 6.92487 16.6688
rtibia 6.59053
rfoot -18.1362 -3.62128
rtoes -18.3271
lfemur -23.4211 -10.6697 -23.9038
ltibia 7.09227
lfoot -6.29903 -6.41398
ltoes -8.75589
468
root 12.0724 18.0205 8.21236 -154.685 0.394319 175.798
lowerback -30.4534 -3.58182 -12.4707
upperback -0.548275 -0.847995 -1.56402
thorax 15.3872 -1.53123 4.54302
lowerneck -2.34252 -2.49887 -0.636911
upperneck 9.08876 -3.5206 6.59999
head 3.51884 -1.35543 2.17357
rclavicle 2.68359e-015 -9.54166e-015
rhumerus -34.1073 -19.2225 -77.4039
rradius 24.9442
rwrist 4.35482
rhand -4.219 -52.95
rfingers 7.12502
rthumb 21.5436 278.228
lclavicle 2.68359e-015 -9.54166e-015
lhumerus -27.8943 5.76194 77.6994
lradius 17.1353
lwrist -6.80519
lhand -21.455 -11.9521
lfingers 7.12502
lthumb 4.935 17.9705
rfemur -23.484 6.93047 16.613
rtibia 6.42811
rfoot -18.051 -3.5571
rtoes -17.7474
lfemur -23.3435 -10.5444 -23.999
ltibia 7.03123
lfoot -6.19692 -6.49331
ltoes -9.44627
